<?xml version="1.0" encoding="UTF-8"?>
<!DOCTYPE svg PUBLIC "-//W3C//DTD SVG 1.1//EN" "http://www.w3.org/Graphics/SVG/1.1/DTD/svg11.dtd">
<svg version="1.1" xmlns="http://www.w3.org/2000/svg" xmlns:xlink="http://www.w3.org/1999/xlink" x="0" y="0" width="1286.128" height="1000" viewBox="0, 0, 1286.128, 1000">
  <g id="Layer_1">
    <g>
      <path d="M821.765,489.908 C821.765,588.562 741.79,668.537 643.136,668.537 C544.482,668.537 464.507,588.562 464.507,489.908 C464.507,391.254 544.482,311.279 643.136,311.279 C741.79,311.279 821.765,391.254 821.765,489.908 z" fill="#1D1D1B"/>
      <path d="M1092.923,-0 L193.133,-0 C86.456,-0 -0,85.242 -0,190.133 L-0,370.012 L-0,454.11 L-0,809.867 C-0,914.83 86.456,1000 193.133,1000 L1092.923,1000 C1199.671,1000 1286.128,914.723 1286.128,809.867 L1286.128,454.11 L1286.128,370.012 L1286.128,190.133 C1286.199,85.063 1199.743,-0 1092.923,-0 z M193.241,243.828 C163.66,243.828 139.723,219.821 139.723,190.24 C139.723,160.766 163.66,136.651 193.241,136.651 C222.822,136.651 246.901,160.766 246.901,190.24 C246.901,219.678 222.857,243.828 193.241,243.828 z M643.528,775.749 C485.692,775.749 357.722,647.672 357.722,489.872 C357.722,332.142 485.692,204.137 643.528,204.137 C801.365,204.137 929.334,332.142 929.334,489.872 C929.334,647.672 801.293,775.749 643.528,775.749 z" fill="#1D1D1B"/>
    </g>
  </g>
</svg>
