<?xml version="1.0" encoding="UTF-8"?>
<!DOCTYPE svg PUBLIC "-//W3C//DTD SVG 1.1//EN" "http://www.w3.org/Graphics/SVG/1.1/DTD/svg11.dtd">
<svg version="1.1" xmlns="http://www.w3.org/2000/svg" xmlns:xlink="http://www.w3.org/1999/xlink" x="0" y="0" width="1000" height="1000" viewBox="0, 0, 1000, 1000">
  <g id="Layer_1">
    <g>
      <path d="M915.834,84.464 C803.393,-28.165 620.544,-28.165 508.04,84.526 L404.881,187.623 C468.008,185.842 531.353,199.03 589.137,227.343 L619.763,196.748 C670.327,146.122 752.892,146.122 803.55,196.717 C854.208,247.375 854.208,330.003 803.55,380.692 L655.732,528.478 C605.293,579.136 522.541,579.104 471.883,528.447 C441.132,497.852 390.818,497.852 359.879,528.478 C329.128,559.385 329.128,609.855 359.879,640.513 C472.508,753.141 655.232,753.141 767.861,640.513 L915.647,492.727 C1028.057,379.879 1028.057,196.748 915.834,84.464 z" fill="#1D1D1B"/>
      <path d="M380.286,803.642 C329.69,854.144 247.219,854.144 196.561,803.642 C145.841,752.984 145.841,670.325 196.561,619.699 L344.347,471.913 C395.005,421.255 477.601,421.255 528.197,471.913 C559.073,502.851 609.574,502.851 640.2,471.913 C671.076,441.193 671.076,390.817 640.2,359.878 C527.696,247.281 345.222,247.312 232.281,359.909 L84.495,507.695 C-28.165,620.293 -28.165,803.017 84.495,915.646 C196.998,1028.118 379.473,1028.118 492.352,915.646 L595.449,812.392 C532.322,814.33 468.976,801.142 411.068,772.672 L380.286,803.642 z" fill="#1D1D1B"/>
    </g>
  </g>
</svg>
