<?xml version="1.0" encoding="UTF-8"?>
<!DOCTYPE svg PUBLIC "-//W3C//DTD SVG 1.1//EN" "http://www.w3.org/Graphics/SVG/1.1/DTD/svg11.dtd">
<svg version="1.1" xmlns="http://www.w3.org/2000/svg" xmlns:xlink="http://www.w3.org/1999/xlink" x="0" y="0" width="1000" height="1000" viewBox="0, 0, 1000, 1000">
  <g id="Layer_1">
    <path d="M960.532,771.93 L766.108,577.571 C750.17,561.634 731.058,551.268 711.007,544.757 C781.98,403.717 758.916,227.692 641.167,110.04 C567.829,36.475 471.783,0 375.931,0 C279.432,0 183.483,36.831 110.08,110.04 C-36.693,256.749 -36.693,494.774 110.08,641.548 C183.483,715.016 279.464,751.523 375.931,751.523 C433.3,751.523 491.154,738.079 543.858,711.711 C550.11,732.022 560.735,751.199 576.931,767.266 L771.42,961.625 C797.724,987.928 831.801,1000.918 866.43,1000.918 C900.831,1000.918 935.2,987.928 961.601,961.625 C1012.976,909.31 1012.976,824.278 960.532,771.93 z M198.125,553.049 C100.427,455.287 100.427,296.366 198.125,198.732 C245.484,151.406 308.392,125.2 375.607,125.2 C442.402,125.2 505.375,151.341 552.701,198.732 C600.028,246.188 626.169,308.934 626.169,376.085 C626.169,442.88 600.028,505.982 552.636,553.471 C505.375,600.732 442.499,626.938 375.543,626.938 C308.489,626.485 245.387,600.473 198.125,553.049 z" fill="#1D1D1B"/>
  </g>
</svg>
