<?xml version="1.0" encoding="UTF-8"?>
<!DOCTYPE svg PUBLIC "-//W3C//DTD SVG 1.1//EN" "http://www.w3.org/Graphics/SVG/1.1/DTD/svg11.dtd">
<svg version="1.1" xmlns="http://www.w3.org/2000/svg" xmlns:xlink="http://www.w3.org/1999/xlink" x="0" y="0" width="1000" height="1000" viewBox="0, 0, 1000, 1000">
  <g id="Layer_1">
    <path d="M988.009,392.674 C923.245,392.705 860.167,359.387 825.475,299.182 C791.75,240.913 793.28,171.996 822.977,116.538 C776.449,76.849 722.396,45.716 663.596,25.356 C631.714,83.094 570.478,122.19 499.594,122.19 C428.71,122.19 367.537,83.094 335.655,25.356 C276.449,45.903 222.364,76.88 175.868,116.881 C215.214,174.619 220.772,251.624 183.425,316.075 C146.328,380.215 77.379,413.94 8.431,409.099 C3.31,437.641 0,466.931 0,496.909 C0,530.227 3.248,562.859 9.743,594.46 C81.595,586.217 154.821,620.254 193.261,686.86 C230.358,751.249 225.05,828.035 186.11,885.43 C233.731,924.151 289.189,954.284 349.394,973.239 C378.716,908.85 443.73,863.727 519.36,863.727 C590.276,863.727 651.824,903.198 683.925,961.06 C741.819,938.203 794.373,904.478 839.402,862.822 C803.679,806.052 800.087,732.045 836.123,669.685 C869.848,611.26 930.458,578.035 992.912,576.255 C997.065,550.368 1000,523.763 1000,496.596 C998.97,461.248 995.066,426.305 988.009,392.674 z M499.344,684.237 C395.922,684.237 311.985,600.331 311.985,496.877 C311.985,393.455 395.922,309.518 499.344,309.518 C602.767,309.518 686.704,393.455 686.704,496.877 C686.704,600.487 602.923,684.237 499.344,684.237 z" fill="#1D1D1B"/>
  </g>
</svg>
